<svg width="35" height="36" viewBox="0 0 35 36" fill="none" xmlns="http://www.w3.org/2000/svg">
<g clip-path="url(#clip0_1747_7237)">
<path d="M4.01892 5.9999C4.35951 5.9999 4.69245 5.89433 4.97564 5.69655C5.25883 5.49876 5.47955 5.21764 5.60989 4.88873C5.74022 4.55983 5.77433 4.19791 5.70788 3.84874C5.64144 3.49957 5.47743 3.17885 5.23659 2.92711C4.99576 2.67538 4.68892 2.50394 4.35488 2.43449C4.02083 2.36504 3.67459 2.40068 3.35992 2.53692C3.04526 2.67316 2.77631 2.90387 2.58709 3.19988C2.39787 3.49589 2.29688 3.8439 2.29688 4.1999C2.29688 4.67729 2.4783 5.13513 2.80125 5.4727C3.1242 5.81026 3.56221 5.9999 4.01892 5.9999ZM4.01892 3.5999C4.13245 3.5999 4.24343 3.63509 4.33783 3.70102C4.43222 3.76695 4.5058 3.86066 4.54924 3.97029C4.59269 4.07993 4.60406 4.20057 4.58191 4.31696C4.55976 4.43335 4.50509 4.54026 4.42481 4.62417C4.34454 4.70808 4.24226 4.76522 4.13091 4.78837C4.01956 4.81153 3.90414 4.79964 3.79926 4.75423C3.69437 4.70882 3.60472 4.63191 3.54165 4.53325C3.47857 4.43458 3.44491 4.31857 3.44491 4.1999C3.44491 4.04077 3.50538 3.88816 3.61303 3.77564C3.72068 3.66312 3.86668 3.5999 4.01892 3.5999ZM7.17601 17.3999C7.80042 17.3999 8.41081 17.2064 8.92999 16.8438C9.44917 16.4811 9.85382 15.9658 10.0928 15.3628C10.3317 14.7598 10.3943 14.0962 10.2724 13.4561C10.1506 12.816 9.84993 12.228 9.40841 11.7664C8.96688 11.3049 8.40434 10.9906 7.79193 10.8633C7.17951 10.736 6.54473 10.8013 5.96784 11.0511C5.39096 11.3009 4.89789 11.7238 4.55099 12.2665C4.20408 12.8092 4.01892 13.4472 4.01892 14.0999C4.01999 14.9748 4.35295 15.8135 4.94479 16.4321C5.53662 17.0508 6.33902 17.3988 7.17601 17.3999ZM7.17601 11.9999C7.57336 11.9999 7.96179 12.1231 8.29218 12.3538C8.62257 12.5846 8.88007 12.9125 9.03213 13.2963C9.1842 13.68 9.22398 14.1022 9.14646 14.5096C9.06894 14.917 8.8776 15.2911 8.59663 15.5848C8.31565 15.8785 7.95768 16.0785 7.56796 16.1596C7.17824 16.2406 6.77428 16.199 6.40718 16.04C6.04007 15.8811 5.7263 15.6119 5.50554 15.2666C5.28478 14.9213 5.16695 14.5152 5.16695 14.0999C5.16695 13.5429 5.37862 13.0088 5.75539 12.615C6.13216 12.2212 6.64317 11.9999 7.17601 11.9999Z" fill="white"/>
<path d="M31.3573 13.8978C31.2475 13.7831 31.1267 13.6803 30.9969 13.5912V2.4C30.9969 1.76348 30.7549 1.15303 30.3244 0.702944C29.8938 0.252856 29.3097 0 28.7008 0L2.29606 0C1.68711 0 1.1031 0.252856 0.672501 0.702944C0.241906 1.15303 0 1.76348 0 2.4L0 30C0 30.6365 0.241906 31.247 0.672501 31.6971C1.1031 32.1471 1.68711 32.4 2.29606 32.4H13.126L12.6823 34.1004C12.613 34.3532 12.6095 34.6207 12.6723 34.8754C12.7351 35.13 12.8618 35.3625 13.0393 35.5488C13.1725 35.6918 13.3317 35.8053 13.5076 35.8828C13.6835 35.9603 13.8725 36.0002 14.0634 36C14.1924 36 14.3209 35.9824 14.4457 35.9478L18.8277 34.698C19.4515 34.5157 20.0208 34.1707 20.482 33.6954L21.719 32.4H28.7008C29.3097 32.4 29.8938 32.1471 30.3244 31.6971C30.7549 31.247 30.9969 30.6365 30.9969 30V22.701L33.7734 19.8C34.201 19.3523 34.4412 18.7455 34.4412 18.1128C34.4412 17.4801 34.201 16.8733 33.7734 16.4256L31.3573 13.8978ZM2.29606 1.2H28.7008C29.0053 1.2 29.2973 1.32643 29.5126 1.55147C29.7279 1.77652 29.8488 2.08174 29.8488 2.4V7.2H1.14803V2.4C1.14803 2.08174 1.26898 1.77652 1.48428 1.55147C1.69958 1.32643 1.99159 1.2 2.29606 1.2ZM2.29606 31.2C1.99159 31.2 1.69958 31.0736 1.48428 30.8485C1.26898 30.6235 1.14803 30.3183 1.14803 30V8.4H29.8488V13.2108C29.5318 13.193 29.2147 13.245 28.9181 13.3633C28.6214 13.4816 28.3519 13.6637 28.1268 13.8978L24.034 18.1764L19.8035 14.3808C19.5651 14.1669 19.2613 14.0493 18.9471 14.0493C18.6329 14.0493 18.3291 14.1669 18.0907 14.3808L10.3179 21.42L8.32782 19.755C8.07586 19.548 7.76007 19.4446 7.44013 19.4644C7.12019 19.4841 6.81827 19.6257 6.59142 19.8624L3.95095 22.6224C3.78989 22.7894 3.66215 22.9881 3.57515 23.2071C3.48814 23.426 3.44359 23.6609 3.44409 23.898V27.6C3.44409 28.0774 3.62552 28.5352 3.94847 28.8728C4.27142 29.2104 4.70943 29.4 5.16614 29.4H13.9176C13.905 29.442 13.8877 29.4816 13.8768 29.5248L13.4394 31.2H2.29606ZM18.4787 30.7338L26.7227 22.1154L28.33 23.7954L20.0842 32.412L18.4787 30.7338ZM14.4991 28.2H5.16614C5.0139 28.2 4.8679 28.1368 4.76025 28.0243C4.6526 27.9117 4.59213 27.7591 4.59213 27.6V23.898C4.59221 23.8183 4.60749 23.7394 4.63705 23.666C4.66662 23.5925 4.70989 23.526 4.76433 23.4702L7.4048 20.7102C7.43228 20.6814 7.46875 20.664 7.50754 20.661C7.54633 20.658 7.58484 20.6697 7.61604 20.694L9.97525 22.668C10.08 22.7558 10.2109 22.8024 10.3451 22.7998C10.4794 22.7972 10.6085 22.7454 10.71 22.6536L18.8386 15.288C18.8678 15.2608 18.9055 15.2458 18.9445 15.2458C18.9836 15.2458 19.0213 15.2608 19.0504 15.288L23.2224 19.0278L14.8349 27.795C14.7144 27.922 14.6022 28.0573 14.4991 28.2ZM24.3073 19.59L25.9111 21.27L17.6671 29.8854L16.0633 28.2084L24.3073 19.59ZM29.1399 22.9452L25.1189 18.7416L26.7222 17.0652L30.7431 21.2688L29.1399 22.9452ZM18.5223 33.54L14.1478 34.7886C14.0973 34.8024 14.0442 34.8021 13.9939 34.7877C13.9435 34.7734 13.8976 34.7456 13.8608 34.707C13.825 34.6706 13.7995 34.6245 13.7873 34.5739C13.775 34.5232 13.7764 34.47 13.7913 34.4202L14.9818 29.841C15.0506 29.5809 15.1565 29.3332 15.2958 29.106L19.2209 33.2088C19.0051 33.3549 18.7697 33.4666 18.5223 33.54ZM29.8488 30C29.8488 30.3183 29.7279 30.6235 29.5126 30.8485C29.2973 31.0736 29.0053 31.2 28.7008 31.2H22.8665L29.8488 23.901V30ZM32.9617 18.9498L31.5548 20.4204L27.5338 16.2168L28.9407 14.7462C29.1539 14.5234 29.4429 14.3983 29.7444 14.3983C30.0458 14.3983 30.3348 14.5234 30.548 14.7462L32.964 17.2722C33.176 17.4953 33.2948 17.7971 33.2943 18.1115C33.2939 18.4259 33.1743 18.7274 32.9617 18.9498Z" fill="white"/>
<path d="M8.03495 3.5999H14.9231C15.0754 3.5999 15.2214 3.53669 15.329 3.42417C15.4367 3.31164 15.4972 3.15903 15.4972 2.9999C15.4972 2.84077 15.4367 2.68816 15.329 2.57564C15.2214 2.46312 15.0754 2.3999 14.9231 2.3999H8.03495C7.88271 2.3999 7.73671 2.46312 7.62906 2.57564C7.52141 2.68816 7.46094 2.84077 7.46094 2.9999C7.46094 3.15903 7.52141 3.31164 7.62906 3.42417C7.73671 3.53669 7.88271 3.5999 8.03495 3.5999ZM8.03495 5.9999H12.0531C12.2053 5.9999 12.3513 5.93669 12.459 5.82417C12.5666 5.71164 12.6271 5.55903 12.6271 5.3999C12.6271 5.24077 12.5666 5.08816 12.459 4.97564C12.3513 4.86312 12.2053 4.7999 12.0531 4.7999H8.03495C7.88271 4.7999 7.73671 4.86312 7.62906 4.97564C7.52141 5.08816 7.46094 5.24077 7.46094 5.3999C7.46094 5.55903 7.52141 5.71164 7.62906 5.82417C7.73671 5.93669 7.88271 5.9999 8.03495 5.9999Z" fill="white"/>
</g>
<defs>
<clipPath id="clip0_1747_7237">
<rect width="34.4409" height="36" fill="white"/>
</clipPath>
</defs>
</svg>
