<svg width="14" height="35" viewBox="0 0 14 35" fill="none" xmlns="http://www.w3.org/2000/svg">
<path fill-rule="evenodd" clip-rule="evenodd" d="M10.2855 33.3845C10.2855 34.2767 9.56213 35 8.66992 35C7.77771 35 7.05437 34.2767 7.05437 33.3845V22.359C7.0542 22.2795 7.02258 22.2034 6.96642 22.1472C6.91026 22.0911 6.83413 22.0595 6.75471 22.0593H6.70776C6.62833 22.0595 6.55222 22.0911 6.49606 22.1472C6.43989 22.2034 6.40827 22.2795 6.4081 22.359V33.3845C6.4081 34.2767 5.68476 35 4.79255 35C3.90027 35 3.17701 34.2767 3.17701 33.3845V11.4711C3.17682 11.3917 3.14518 11.3156 3.08902 11.2595C3.03287 11.2033 2.95676 11.1717 2.87735 11.1716H2.83039C2.75096 11.1717 2.67483 11.2033 2.61867 11.2595C2.5625 11.3157 2.53088 11.3918 2.53073 11.4712V19.9074C2.53073 20.6063 1.96418 21.1728 1.2654 21.1728C0.566553 21.1728 0 20.6063 0 19.9074V10.7577C0 8.77441 1.61756 7.15685 3.60082 7.15685H9.86172C11.845 7.15685 13.4625 8.77441 13.4625 10.7577V19.9074C13.4625 20.6063 12.896 21.1728 12.1971 21.1728C11.4983 21.1728 10.9317 20.6063 10.9317 19.9074V11.4712C10.9316 11.3918 10.9 11.3157 10.8438 11.2595C10.7876 11.2033 10.7115 11.1717 10.6321 11.1716H10.5851C10.5056 11.1717 10.4295 11.2033 10.3734 11.2595C10.3172 11.3156 10.2856 11.3917 10.2854 11.4711L10.2855 33.3845ZM6.73124 0C8.44436 0 9.83313 1.38877 9.83313 3.10189C9.83313 4.81502 8.44436 6.20379 6.73124 6.20379C5.01811 6.20379 3.62934 4.81502 3.62934 3.10189C3.62934 1.38877 5.01811 0 6.73124 0Z" fill="#210F04"/>
</svg>
