<svg width="32" height="32" viewBox="0 0 32 32" fill="none" xmlns="http://www.w3.org/2000/svg">
<path d="M17.342 21.6239C17.2854 21.4696 17.17 21.3438 17.0211 21.2742C16.8722 21.2045 16.7018 21.1965 16.547 21.2519L16.3715 21.3159C16.2175 21.3733 16.0923 21.489 16.023 21.638C15.9538 21.787 15.946 21.9573 16.0015 22.1119L16.7795 24.2499C16.8955 24.5694 17.2545 24.7374 17.5735 24.6214L17.7495 24.5564C18.069 24.4409 18.237 24.0809 18.12 23.7604L17.342 21.6239ZM17.499 24.0874L17.4625 24.1004C17.4331 24.1106 17.401 24.1089 17.3729 24.0959C17.3447 24.0828 17.3227 24.0594 17.3115 24.0304L16.5505 21.9374C16.5402 21.9078 16.5419 21.8754 16.5552 21.847C16.5684 21.8187 16.5922 21.7966 16.6215 21.7854L16.6585 21.7724C16.688 21.7622 16.7203 21.7639 16.7486 21.7772C16.7769 21.7904 16.7989 21.8142 16.81 21.8434L17.5715 23.9354C17.5812 23.9652 17.5792 23.9976 17.5657 24.0259C17.5522 24.0542 17.5283 24.0763 17.499 24.0874ZM19.095 20.8854L18.684 21.0359C18.6753 21.0388 18.6673 21.0434 18.6605 21.0494C18.6537 21.0554 18.6481 21.0627 18.6442 21.071C18.6403 21.0792 18.638 21.0881 18.6377 21.0972C18.6373 21.1063 18.6388 21.1154 18.642 21.1239L19.131 22.4654L18.1605 21.2944C18.139 21.2649 18.0875 21.2534 18.0505 21.2664L17.745 21.3774C17.708 21.3909 17.691 21.4289 17.704 21.4669L18.6675 24.1139C18.68 24.1494 18.7175 24.1684 18.7555 24.1544L19.1665 24.0039C19.204 23.9914 19.2205 23.9529 19.2075 23.9159L18.7705 22.7129L19.6995 23.7429C19.7205 23.7709 19.7725 23.7834 19.809 23.7704L20.106 23.6624C20.1145 23.6594 20.1222 23.6546 20.1289 23.6486C20.1356 23.6425 20.1409 23.6351 20.1448 23.6269C20.1486 23.6188 20.1507 23.6099 20.1511 23.6009C20.1515 23.5919 20.1501 23.5829 20.147 23.5744L19.1835 20.9274C19.1807 20.9187 19.1761 20.9106 19.1701 20.9037C19.1641 20.8967 19.1567 20.8911 19.1484 20.8872C19.14 20.8833 19.131 20.8811 19.1218 20.8808C19.1127 20.8805 19.1035 20.8821 19.095 20.8854ZM21.457 22.5554L20.93 22.7479L20.7035 22.1234L21.161 21.9569C21.1695 21.9539 21.1774 21.9491 21.1841 21.943C21.1908 21.9369 21.1962 21.9295 21.2 21.9213C21.2038 21.913 21.2059 21.9041 21.2063 21.895C21.2066 21.886 21.2052 21.8769 21.202 21.8684L21.052 21.4564C21.0491 21.4477 21.0446 21.4397 21.0385 21.4328C21.0324 21.426 21.025 21.4205 21.0167 21.4166C21.0084 21.4128 20.9994 21.4107 20.9902 21.4105C20.981 21.4103 20.9719 21.412 20.9635 21.4154L20.506 21.5819L20.3135 21.0539L20.8405 20.8629C20.8493 20.86 20.8574 20.8553 20.8643 20.8491C20.8712 20.8429 20.8767 20.8353 20.8806 20.8269C20.8844 20.8184 20.8865 20.8093 20.8867 20.8C20.8868 20.7907 20.885 20.7815 20.8815 20.7729L20.7325 20.3619C20.7296 20.3532 20.725 20.3452 20.719 20.3383C20.7129 20.3315 20.7055 20.3259 20.6972 20.322C20.6889 20.3181 20.6799 20.316 20.6708 20.3157C20.6616 20.3154 20.6525 20.317 20.644 20.3204L19.6405 20.6854C19.6319 20.6884 19.6239 20.693 19.6171 20.6991C19.6104 20.7052 19.6049 20.7127 19.6011 20.7209C19.5972 20.7292 19.5951 20.7382 19.5949 20.7473C19.5946 20.7564 19.5962 20.7654 19.5995 20.7739L20.562 23.4214C20.5649 23.4301 20.5696 23.438 20.5757 23.4448C20.5818 23.4516 20.5892 23.4571 20.5974 23.4609C20.6057 23.4648 20.6146 23.467 20.6237 23.4673C20.6329 23.4677 20.642 23.4662 20.6505 23.4629L21.654 23.0974C21.6627 23.0946 21.6707 23.09 21.6776 23.0839C21.6844 23.0779 21.6899 23.0704 21.6937 23.0621C21.6975 23.0538 21.6995 23.0447 21.6997 23.0356C21.6998 23.0264 21.698 23.0174 21.6945 23.0089L21.545 22.5969C21.5421 22.5883 21.5376 22.5803 21.5315 22.5735C21.5255 22.5667 21.5181 22.5611 21.5099 22.5573C21.5017 22.5534 21.4927 22.5512 21.4836 22.5509C21.4745 22.5506 21.4655 22.5521 21.457 22.5554Z" fill="#210F04"/>
<path d="M31 20.5355L30.5655 19.341L30.5565 19.345C30.4782 19.3735 30.395 19.3863 30.3117 19.3826C30.2284 19.3789 30.1467 19.3589 30.0712 19.3236C29.9957 19.2883 29.9279 19.2384 29.8716 19.1769C29.8154 19.1154 29.7719 19.0434 29.7435 18.965C29.7148 18.8859 29.7021 18.8018 29.7061 18.7178C29.7101 18.6337 29.7308 18.5513 29.767 18.4753C29.8031 18.3993 29.854 18.3312 29.9166 18.275C29.9793 18.2188 30.0525 18.1757 30.132 18.148L29.698 16.9545C29.695 16.955 29.692 16.957 29.689 16.958C29.5307 17.0156 29.3559 17.008 29.2032 16.9368C29.0505 16.8655 28.9324 16.7366 28.8748 16.5782C28.8171 16.4199 28.8248 16.2452 28.896 16.0925C28.9672 15.9398 29.0962 15.8216 29.2545 15.764L29.264 15.7615L28.83 14.567C28.7514 14.5967 28.6678 14.6105 28.5838 14.6077C28.4999 14.6049 28.4173 14.5855 28.3409 14.5506C28.2645 14.5158 28.1958 14.4661 28.1386 14.4046C28.0815 14.343 28.0371 14.2708 28.008 14.192C27.888 13.8625 28.058 13.4975 28.387 13.3775C28.3895 13.376 28.3935 13.3755 28.3965 13.3745L27.9625 12.1805C27.959 12.181 27.9555 12.1825 27.9525 12.1835C27.7997 12.2394 27.6313 12.2343 27.4821 12.1693C27.333 12.1044 27.2146 11.9844 27.1515 11.8345C26.7543 11.8807 26.3518 11.841 25.9712 11.7183C25.5907 11.5955 25.2409 11.3925 24.9455 11.123C24.9426 10.5084 25.1416 9.90991 25.512 9.41949C25.4161 9.29103 25.3724 9.13106 25.3897 8.97171C25.4069 8.81237 25.4839 8.66545 25.605 8.56049L24.788 7.58749C24.7855 7.58899 24.784 7.59149 24.781 7.59449C24.7172 7.64813 24.6435 7.68864 24.564 7.71371C24.4845 7.73878 24.4009 7.7479 24.3178 7.74056C24.2348 7.73322 24.1541 7.70956 24.0802 7.67094C24.0064 7.63231 23.9409 7.57949 23.8875 7.51549C23.7792 7.38652 23.7267 7.21983 23.7413 7.05209C23.7559 6.88434 23.8366 6.72928 23.9655 6.62099C23.968 6.61949 23.9705 6.61699 23.973 6.61449L23.157 5.64199L23.15 5.64799C23.0864 5.70329 23.0124 5.74537 22.9323 5.77177C22.8522 5.79818 22.7677 5.80837 22.6837 5.80177C22.5996 5.79516 22.5178 5.77189 22.4428 5.7333C22.3678 5.69472 22.3013 5.64159 22.2471 5.57703C22.1929 5.51247 22.1521 5.43775 22.1271 5.35725C22.102 5.27675 22.0933 5.19207 22.1013 5.10815C22.1094 5.02423 22.134 4.94275 22.1739 4.86847C22.2138 4.79419 22.268 4.72858 22.3335 4.67549L22.3415 4.66949L21.5255 3.69649C21.462 3.75161 21.3882 3.79354 21.3083 3.81984C21.2285 3.84614 21.1442 3.85629 21.0604 3.84968C20.9766 3.84307 20.8949 3.81984 20.8201 3.78135C20.7454 3.74286 20.6791 3.68988 20.625 3.62549C20.5713 3.56165 20.5307 3.48785 20.5055 3.40831C20.4803 3.32877 20.4711 3.24505 20.4783 3.16193C20.4855 3.07881 20.509 2.99793 20.5475 2.9239C20.5859 2.84987 20.6386 2.78415 20.7025 2.73049C20.705 2.72799 20.708 2.72649 20.7105 2.72499L19.894 1.75099L19.886 1.75749C19.7614 1.86208 19.6014 1.91476 19.4391 1.90461C19.2768 1.89447 19.1246 1.82228 19.014 1.70299C18.6226 1.90089 18.1901 2.00384 17.7515 2.00349C17.3414 2.0041 16.9363 1.91457 16.5647 1.74125C16.193 1.56792 15.8641 1.31504 15.601 1.00049L1.346 12.97C1.82452 13.5407 2.05686 14.2781 1.99198 15.0201C1.92711 15.7621 1.57031 16.4479 1 16.927L6.1415 23.059L8.42 29.3215C9.11951 29.0672 9.8914 29.1011 10.5659 29.4159C11.2403 29.7307 11.7621 30.3005 12.0165 31L29.5035 24.631C29.286 24.033 29.2779 23.3789 29.4807 22.7758C29.6834 22.1726 30.0849 21.6562 30.6195 21.311C30.5734 21.1576 30.587 20.9924 30.6576 20.8486C30.7281 20.7048 30.8505 20.5929 31 20.5355ZM25.0385 13.816L27.711 21.1635C27.7814 21.3581 27.7718 21.5727 27.6842 21.7602C27.5967 21.9478 27.4384 22.093 27.244 22.164L12.161 27.657C11.9668 27.7272 11.7526 27.7176 11.5655 27.6303C11.3783 27.5429 11.2334 27.385 11.1625 27.191L10.006 24.012C10.528 24.1685 10.9926 24.4747 11.3425 24.8925L15.937 21.0345L16.595 20.7945C16.7248 20.7459 16.8347 20.6556 16.9076 20.5378C16.9804 20.42 17.0121 20.2813 16.9975 20.1435L17.3345 19.861L17.5245 20.383C17.5275 20.3917 17.5321 20.3997 17.5383 20.4065C17.5444 20.4133 17.5518 20.4189 17.5601 20.4227C17.5685 20.4266 17.5775 20.4288 17.5866 20.4291C17.5958 20.4294 17.6049 20.4278 17.6135 20.4245L18.0565 20.2625C18.0652 20.2595 18.0732 20.2549 18.08 20.2487C18.0868 20.2426 18.0924 20.2352 18.0962 20.2268C18.1001 20.2185 18.1023 20.2095 18.1026 20.2003C18.1029 20.1912 18.1013 20.182 18.098 20.1735L17.8325 19.4435L17.9415 19.351L18.356 19.933C18.377 19.9615 18.4055 19.9515 18.4035 19.916L18.3325 19.0235L18.402 18.965L18.755 19.934C18.7581 19.9426 18.7628 19.9505 18.769 19.9573C18.7751 19.964 18.7825 19.9695 18.7908 19.9733C18.7991 19.9772 18.8081 19.9794 18.8172 19.9797C18.8263 19.9801 18.8354 19.9787 18.844 19.9755L19.287 19.8135C19.2957 19.8108 19.3038 19.8063 19.3107 19.8003C19.3177 19.7943 19.3233 19.7869 19.3272 19.7787C19.3311 19.7704 19.3333 19.7614 19.3336 19.7523C19.334 19.7431 19.3324 19.734 19.329 19.7255L18.9 18.547L19.2615 18.2445L19.7455 19.5745C19.7485 19.5831 19.7532 19.5911 19.7594 19.5979C19.7655 19.6047 19.7729 19.6102 19.7812 19.614C19.7895 19.6179 19.7985 19.6201 19.8077 19.6204C19.8168 19.6207 19.8259 19.6192 19.8345 19.616L20.245 19.4655C20.2537 19.4625 20.2617 19.4577 20.2686 19.4516C20.2754 19.4454 20.281 19.4379 20.2849 19.4296C20.2888 19.4213 20.291 19.4122 20.2914 19.403C20.2917 19.3938 20.2902 19.3846 20.287 19.376L19.732 17.849L20.3485 17.3305L20.999 19.117C21.0055 19.134 21.0184 19.1478 21.0349 19.1556C21.0514 19.1633 21.0702 19.1644 21.0875 19.1585L21.4985 19.009C21.5071 19.006 21.5151 19.0013 21.5219 18.9951C21.5287 18.989 21.5342 18.9815 21.538 18.9733C21.5419 18.965 21.5441 18.956 21.5444 18.9468C21.5448 18.9377 21.5433 18.9285 21.54 18.92L20.8185 16.936L24.859 13.5435C24.9335 13.62 24.999 13.708 25.0385 13.816ZM2.5755 13.1615L15.5765 2.24449C16.0573 2.58824 16.6128 2.81298 17.1973 2.90025C17.7819 2.98752 18.3788 2.93482 18.939 2.74649C19.1449 2.82258 19.3645 2.85428 19.5835 2.83949L19.585 2.84099C19.47 3.31099 19.572 3.82899 19.9065 4.22649C20.065 4.41628 20.2662 4.56584 20.4937 4.66291C20.7211 4.75998 20.9683 4.80182 21.215 4.78499L21.2165 4.78649C21.1569 5.02652 21.1549 5.27723 21.2106 5.51819C21.2663 5.75914 21.3782 5.98353 21.5371 6.17304C21.696 6.36255 21.8974 6.51183 22.125 6.6087C22.3525 6.70558 22.5998 6.74731 22.8465 6.73049L22.848 6.73199C22.7885 6.97201 22.7866 7.22268 22.8424 7.46359C22.8981 7.7045 23.01 7.92883 23.1689 8.11831C23.3277 8.3078 23.5291 8.45707 23.7566 8.55398C23.9841 8.65089 24.2313 8.6927 24.478 8.67599L24.49 8.68999C24.4444 8.89054 24.4381 9.09804 24.4715 9.30099C24.1796 9.82213 24.0178 10.406 23.9997 11.003C23.9816 11.6 24.1077 12.1926 24.3675 12.7305L11.3675 23.646C10.7327 23.1923 9.97177 22.9487 9.1915 22.9495C8.63421 22.95 8.08404 23.0747 7.581 23.3145L2.244 16.9515C2.63096 16.4062 2.86565 15.7676 2.92391 15.1015C2.98218 14.4353 2.86192 13.7657 2.5755 13.1615ZM29.682 20.844C29.2295 21.2338 28.8777 21.7269 28.6565 22.2817C28.4352 22.8364 28.351 23.4363 28.411 24.0305L12.4645 29.8395C12.0854 29.2894 11.5665 28.8503 10.9612 28.5675C10.3559 28.2848 9.68616 28.1686 9.021 28.231L7.621 24.384C8.06678 24.077 8.59241 23.9067 9.1335 23.894L10.4295 27.4585C10.5714 27.8468 10.8616 28.1631 11.2363 28.3378C11.6111 28.5125 12.0398 28.5315 12.4285 28.3905L27.5105 22.897C27.8989 22.755 28.2151 22.4647 28.3898 22.0899C28.5645 21.7151 28.5835 21.2863 28.4425 20.8975L25.77 13.55C25.6997 13.3617 25.5924 13.1893 25.4545 13.043L25.5975 12.923C25.4757 12.7751 25.3693 12.6151 25.28 12.4455C25.728 12.6505 26.213 12.7785 26.722 12.7915C26.889 12.9325 27.0845 13.038 27.297 13.099C27.2521 13.1668 27.2123 13.2383 27.178 13.312C27.0903 13.4989 27.0406 13.7013 27.0316 13.9075C27.0227 14.1138 27.0548 14.3197 27.126 14.5135C27.211 14.7453 27.3492 14.954 27.5296 15.1227C27.71 15.2913 27.9275 15.4152 28.1645 15.4845L28.1655 15.488C28.0282 15.6935 27.9411 15.9284 27.9111 16.1737C27.8812 16.419 27.9092 16.668 27.993 16.9005C28.0785 17.1322 28.2169 17.3406 28.3973 17.5092C28.5777 17.6778 28.7951 17.8019 29.032 17.8715L29.033 17.874C28.8957 18.0796 28.8087 18.3146 28.7789 18.5601C28.7491 18.8055 28.7774 19.0545 28.8615 19.287C28.9468 19.5187 29.0852 19.7272 29.2655 19.8958C29.4458 20.0644 29.6631 20.1884 29.9 20.258L29.9065 20.2755C29.7962 20.449 29.72 20.6419 29.682 20.844Z" fill="#210F04"/>
<path d="M8.64038 22.107C8.90652 22.4235 9.28735 22.6216 9.69933 22.6577C10.1113 22.6938 10.5208 22.5649 10.8379 22.2995L23.1329 11.975C23.4491 11.7085 23.6469 11.3277 23.683 10.9157C23.7191 10.5038 23.5905 10.0944 23.3254 9.77699L18.3024 3.78649C18.0365 3.4699 17.6558 3.27179 17.244 3.2357C16.8321 3.1996 16.4228 3.32847 16.1059 3.59399L3.80988 13.9185C3.49361 14.1849 3.29583 14.5659 3.25984 14.9778C3.22385 15.3898 3.3526 15.7993 3.61788 16.1165L8.64038 22.107ZM4.31138 14.5165L16.6069 4.19149C16.7654 4.05888 16.9701 3.99452 17.176 4.01251C17.3819 4.03051 17.5723 4.12939 17.7054 4.28749L22.7279 10.277C23.0044 10.607 22.9609 11.1 22.6319 11.3765L10.3359 21.7015C10.1775 21.834 9.97303 21.8984 9.76729 21.8804C9.56155 21.8624 9.37134 21.7635 9.23838 21.6055L4.21538 15.615C4.08277 15.4565 4.01841 15.2518 4.0364 15.0459C4.0544 14.84 4.15328 14.6496 4.31138 14.5165Z" fill="#210F04"/>
<path d="M10.0619 15.4035C10.0834 15.437 10.1214 15.4445 10.1514 15.4185L10.4954 15.1315C10.5254 15.1055 10.5284 15.0635 10.5069 15.0305L10.1954 14.5975L10.4299 14.4015L10.8009 14.784C10.8304 14.8105 10.8719 14.8145 10.9024 14.789L11.2449 14.5015C11.2764 14.476 11.2754 14.437 11.2459 14.41L8.83786 12.1125C8.82368 12.0995 8.80523 12.0921 8.78599 12.0917C8.76675 12.0914 8.74803 12.098 8.73336 12.1105L8.23536 12.5285C8.22054 12.5407 8.21076 12.558 8.2079 12.577C8.20504 12.596 8.2093 12.6154 8.21986 12.6315L10.0619 15.4035ZM9.11536 13.042L10.0444 14.0045L9.87136 14.15L9.08536 13.067L9.11536 13.042ZM11.4939 14.201C11.5194 14.231 11.5619 14.235 11.5914 14.2095L12.1569 13.7345C12.2821 13.6282 12.3604 13.4768 12.3746 13.3131C12.3888 13.1495 12.3379 12.9868 12.2329 12.8605L11.1324 11.548C11.0264 11.4226 10.8752 11.3442 10.7116 11.3299C10.5481 11.3155 10.3855 11.3664 10.2594 11.4715L9.69236 11.946C9.68541 11.9518 9.67969 11.9589 9.67554 11.967C9.67138 11.9751 9.66889 11.9839 9.66819 11.9929C9.66749 12.0019 9.6686 12.011 9.67147 12.0196C9.67433 12.0282 9.67889 12.0362 9.68486 12.043L11.4939 14.201ZM10.5409 11.9225C10.5651 11.9028 10.5961 11.8934 10.6272 11.8962C10.6582 11.899 10.687 11.9138 10.7074 11.9375L11.7769 13.2125C11.7963 13.2365 11.8057 13.2672 11.8031 13.298C11.8005 13.3289 11.7861 13.3575 11.7629 13.378L11.6419 13.4795L10.4209 12.0235L10.5409 11.9225ZM12.8894 13.03C12.9144 13.06 12.9564 13.0635 12.9864 13.0385L13.3484 12.735C13.3554 12.7293 13.3613 12.7222 13.3656 12.7142C13.3699 12.7062 13.3725 12.6973 13.3733 12.6883C13.3741 12.6792 13.373 12.6701 13.3702 12.6615C13.3674 12.6528 13.3628 12.6448 13.3569 12.638L12.5154 11.635L13.5169 12.3235C13.5469 12.343 13.5694 12.3245 13.5554 12.2915L13.0509 11.185L13.8919 12.1885C13.9169 12.2185 13.9594 12.222 13.9889 12.1975L14.3509 11.894C14.358 11.8883 14.3639 11.8812 14.3682 11.8731C14.3726 11.8651 14.3752 11.8562 14.3761 11.8471C14.3769 11.838 14.3759 11.8289 14.3731 11.8202C14.3703 11.8115 14.3658 11.8034 14.3599 11.7965L12.5504 9.63898C12.5447 9.63186 12.5376 9.62596 12.5296 9.62163C12.5216 9.6173 12.5128 9.61464 12.5038 9.6138C12.4947 9.61296 12.4856 9.61396 12.4769 9.61674C12.4683 9.61952 12.4602 9.62402 12.4534 9.62998L12.1329 9.89898C12.1024 9.92448 12.0989 9.97298 12.1134 10.0065L12.7894 11.4185L11.5174 10.506C11.4884 10.4855 11.4389 10.4815 11.4094 10.5065L11.0889 10.7755C11.0818 10.7812 11.0759 10.7883 11.0716 10.7964C11.0673 10.8044 11.0647 10.8133 11.0639 10.8223C11.063 10.8314 11.064 10.8406 11.0668 10.8493C11.0695 10.858 11.074 10.866 11.0799 10.873L12.8894 13.03ZM14.6989 11.5105C14.7239 11.541 14.7654 11.544 14.7959 11.5195L15.1314 11.238C15.1385 11.2322 15.1444 11.225 15.1486 11.2169C15.1529 11.2088 15.1556 11.1999 15.1564 11.1908C15.1571 11.1816 15.1561 11.1724 15.1533 11.1637C15.1504 11.155 15.1459 11.1469 15.1399 11.14L13.3309 8.98248C13.3251 8.97538 13.318 8.96951 13.3099 8.96522C13.3019 8.96093 13.293 8.95832 13.2839 8.95752C13.2748 8.95673 13.2657 8.95778 13.257 8.9606C13.2483 8.96343 13.2403 8.96798 13.2334 8.97398L12.8984 9.25548C12.8912 9.26115 12.8852 9.26822 12.8808 9.27627C12.8765 9.28432 12.8738 9.29317 12.8729 9.30229C12.8721 9.31142 12.8731 9.32061 12.8759 9.32933C12.8788 9.33804 12.8833 9.34609 12.8894 9.35298L14.6989 11.5105ZM13.8754 9.09598C13.8812 9.10303 13.8884 9.10886 13.8965 9.11311C13.9046 9.11737 13.9135 9.11997 13.9226 9.12076C13.9317 9.12155 13.9409 9.12052 13.9496 9.11772C13.9583 9.11493 13.9664 9.11042 13.9734 9.10448L14.2364 8.88348L15.7204 10.6525C15.7322 10.6664 15.7491 10.6752 15.7673 10.6769C15.7855 10.6785 15.8037 10.673 15.8179 10.6615L16.1529 10.38C16.1599 10.3742 16.1658 10.3671 16.1701 10.3591C16.1744 10.351 16.177 10.3422 16.1779 10.3331C16.1787 10.324 16.1777 10.3149 16.175 10.3062C16.1722 10.2975 16.1678 10.2894 16.1619 10.2825L14.6774 8.51298L14.9454 8.28848C14.9525 8.28283 14.9585 8.27576 14.9628 8.26771C14.9671 8.25967 14.9697 8.25082 14.9705 8.24172C14.9712 8.23262 14.9701 8.22346 14.9671 8.21482C14.9642 8.20617 14.9595 8.19823 14.9534 8.19148L14.6719 7.85598C14.6663 7.84881 14.6593 7.84286 14.6513 7.8385C14.6434 7.83414 14.6346 7.83145 14.6256 7.83061C14.6165 7.82977 14.6074 7.83078 14.5988 7.8336C14.5901 7.83641 14.5822 7.84097 14.5754 7.84698L13.6029 8.66398C13.5959 8.66973 13.5901 8.67681 13.5858 8.68481C13.5816 8.69281 13.5789 8.70158 13.5781 8.7106C13.5773 8.71962 13.5782 8.72872 13.5809 8.73737C13.5836 8.74601 13.588 8.75404 13.5939 8.76098L13.8754 9.09598ZM13.1419 14.259C13.0357 14.1338 12.8845 14.0554 12.721 14.0409C12.5575 14.0264 12.3949 14.0769 12.2684 14.1815L12.1249 14.3025C11.9996 14.4088 11.9214 14.5602 11.9071 14.7239C11.8929 14.8875 11.9438 15.0502 12.0489 15.1765L13.5109 16.919C13.6168 17.0444 13.7679 17.1229 13.9314 17.1374C14.0949 17.1519 14.2575 17.1013 14.3839 16.9965L14.5269 16.8755C14.7874 16.657 14.8219 16.261 14.6029 16.0015L13.1419 14.259ZM14.1319 16.52L14.1014 16.5455C14.0772 16.5649 14.0465 16.5742 14.0157 16.5715C13.9849 16.5688 13.9562 16.5543 13.9359 16.531L12.5054 14.825C12.4858 14.8007 12.4764 14.7699 12.4791 14.7388C12.4818 14.7078 12.4964 14.679 12.5199 14.6585L12.5504 14.6335C12.5746 14.6136 12.6056 14.604 12.6368 14.6067C12.668 14.6094 12.6969 14.6242 12.7174 14.648L14.1474 16.353C14.1666 16.3775 14.1757 16.4085 14.1729 16.4396C14.17 16.4706 14.1553 16.4994 14.1319 16.52ZM14.6339 12.973C14.6283 12.9658 14.6213 12.9599 14.6133 12.9555C14.6054 12.9511 14.5966 12.9485 14.5876 12.9476C14.5785 12.9468 14.5694 12.9478 14.5608 12.9506C14.5521 12.9534 14.5442 12.958 14.5374 12.964L14.2024 13.246C14.1951 13.2516 14.1891 13.2587 14.1847 13.2667C14.1802 13.2748 14.1775 13.2836 14.1767 13.2928C14.1758 13.3019 14.1769 13.3111 14.1798 13.3199C14.1826 13.3286 14.1873 13.3366 14.1934 13.3435L15.1104 14.437L13.7984 13.668C13.7679 13.6485 13.7154 13.655 13.6849 13.6795L13.4359 13.8885C13.4054 13.9145 13.4029 13.955 13.4279 13.986L15.2374 16.143C15.2619 16.173 15.3034 16.1775 15.3334 16.1515L15.6689 15.87C15.676 15.8644 15.6819 15.8574 15.6862 15.8494C15.6905 15.8414 15.6932 15.8326 15.694 15.8236C15.6948 15.8145 15.6937 15.8054 15.6908 15.7968C15.688 15.7882 15.6834 15.7803 15.6774 15.7735L14.8554 14.7925L16.0804 15.4415C16.1099 15.461 16.1634 15.455 16.1929 15.4305L16.4344 15.2275C16.4414 15.2218 16.4473 15.2148 16.4516 15.2068C16.4558 15.1988 16.4584 15.1901 16.4592 15.181C16.46 15.172 16.459 15.1629 16.4562 15.1543C16.4534 15.1457 16.4488 15.1378 16.4429 15.131L14.6339 12.973ZM15.7999 11.9045L14.9819 12.591C14.9748 12.5967 14.969 12.6038 14.9648 12.6118C14.9605 12.6199 14.958 12.6286 14.9572 12.6377C14.9564 12.6467 14.9574 12.6558 14.9602 12.6645C14.963 12.6731 14.9674 12.6811 14.9734 12.688L16.7824 14.846C16.8084 14.876 16.8494 14.8795 16.8799 14.8545L17.6969 14.1675C17.7042 14.162 17.7102 14.155 17.7147 14.1471C17.7191 14.1391 17.7219 14.1303 17.7227 14.1212C17.7235 14.1121 17.7225 14.103 17.7196 14.0943C17.7167 14.0857 17.712 14.0777 17.7059 14.071L17.4244 13.7345C17.4187 13.7274 17.4116 13.7215 17.4036 13.7173C17.3955 13.713 17.3867 13.7104 17.3777 13.7096C17.3686 13.7088 17.3595 13.7098 17.3508 13.7126C17.3422 13.7155 17.3342 13.72 17.3274 13.726L16.8979 14.087L16.4709 13.578L16.8444 13.264C16.8514 13.2583 16.8571 13.2513 16.8614 13.2434C16.8656 13.2354 16.8682 13.2267 16.869 13.2178C16.8698 13.2088 16.8688 13.1998 16.866 13.1912C16.8632 13.1827 16.8588 13.1748 16.8529 13.168L16.5714 12.832C16.5658 12.8247 16.5588 12.8187 16.5508 12.8143C16.5428 12.8099 16.5339 12.8072 16.5248 12.8063C16.5157 12.8055 16.5065 12.8065 16.4979 12.8094C16.4892 12.8123 16.4812 12.8169 16.4744 12.823L16.1014 13.136L15.7404 12.7065L16.1699 12.346C16.1771 12.3403 16.183 12.3331 16.1874 12.3251C16.1918 12.317 16.1945 12.3081 16.1953 12.2989C16.1962 12.2897 16.1952 12.2805 16.1923 12.2718C16.1895 12.263 16.1849 12.2549 16.1789 12.248L15.8974 11.913C15.8917 11.9058 15.8846 11.8999 15.8765 11.8956C15.8684 11.8912 15.8596 11.8886 15.8504 11.8878C15.8413 11.887 15.8321 11.8881 15.8234 11.8909C15.8147 11.8938 15.8067 11.8984 15.7999 11.9045Z" fill="#210F04"/>
</svg>
